<svg width="183" height="40" viewBox="0 0 183 40" fill="none" xmlns="http://www.w3.org/2000/svg">
<path d="M133.579 15.4377L131.399 20.1013H132.414L132.882 19.0431H135.194L135.669 20.1013H136.701L134.506 15.4377H133.579ZM134.86 18.2846H133.221L134.037 16.4488L134.86 18.2846Z" fill="#058CD0"/>
<path d="M141.316 19.2906H138.833V15.4377H137.856V20.1013H141.316V19.2906Z" fill="#058CD0"/>
<path d="M144.754 20.1663C145.547 20.1663 146.229 19.8889 146.676 19.3854L146.705 19.3523L146.068 18.7677L146.034 18.8025C145.881 18.971 145.691 19.1054 145.478 19.1963C145.265 19.2873 145.034 19.3326 144.801 19.3291C143.847 19.3291 143.154 18.6733 143.154 17.7691C143.154 16.8649 143.847 16.2082 144.801 16.2082C145.034 16.205 145.264 16.2499 145.477 16.3397C145.69 16.4296 145.88 16.5623 146.035 16.7291L146.068 16.763L146.706 16.1834L146.676 16.1503C146.229 15.6468 145.549 15.3702 144.761 15.3702C143.259 15.3702 142.17 16.378 142.17 17.7716C142.17 19.1652 143.257 20.1663 144.754 20.1663Z" fill="#058CD0"/>
<path d="M150.282 20.1667C151.791 20.1667 152.886 19.1581 152.886 17.7653C152.886 16.3726 151.791 15.364 150.282 15.364C148.772 15.364 147.677 16.3717 147.677 17.7653C147.677 19.1589 148.772 20.1667 150.282 20.1667ZM150.282 16.2086C151.221 16.2086 151.902 16.8653 151.902 17.7695C151.902 18.6737 151.221 19.3295 150.282 19.3295C149.342 19.3295 148.661 18.6737 148.661 17.7695C148.661 16.8653 149.342 16.2086 150.282 16.2086Z" fill="#058CD0"/>
<path d="M157.742 17.3249H155.382V15.4377H154.404V20.1013H155.382V18.1421H157.742V20.1013H158.719V15.4377H157.742V17.3249Z" fill="#058CD0"/>
<path d="M162.842 15.3723C161.332 15.3723 160.237 16.38 160.237 17.7736C160.237 19.1672 161.332 20.175 162.842 20.175C164.352 20.175 165.447 19.1664 165.447 17.7736C165.447 16.3809 164.348 15.3723 162.842 15.3723ZM162.842 19.3295C161.903 19.3295 161.221 18.6737 161.221 17.7695C161.221 16.8653 161.903 16.2086 162.842 16.2086C163.781 16.2086 164.462 16.8653 164.462 17.7695C164.462 18.6737 163.781 19.3295 162.842 19.3295Z" fill="#058CD0"/>
<path d="M170.426 19.2906H167.945V15.4377H166.967V20.1013H170.426V19.2906Z" fill="#058CD0"/>
<path d="M133.401 23.2749H131.399V27.9385H132.376V26.6194H133.401C134.677 26.6194 135.47 25.9785 135.47 24.9467C135.47 23.915 134.678 23.2749 133.401 23.2749ZM132.376 24.0847H133.36C134.096 24.0847 134.486 24.3828 134.486 24.9467C134.486 25.5106 134.096 25.8087 133.36 25.8087H132.376V24.0847Z" fill="#058CD0"/>
<path d="M137.913 26.6096H138.937C138.989 26.6096 139.043 26.6096 139.096 26.6096L140.064 27.946H141.13L140.02 26.4183C140.656 26.1591 141.004 25.6407 141.004 24.9543C141.004 23.9226 140.212 23.2825 138.94 23.2825H136.938V27.946H137.916L137.913 26.6096ZM137.913 24.0882H138.894C139.63 24.0882 140.02 24.3863 140.02 24.9502C140.02 25.5141 139.62 25.8188 138.894 25.8188H137.911L137.913 24.0882Z" fill="#058CD0"/>
<path d="M146.132 24.0789V23.274H142.57V27.9384H146.227V27.1344H143.548V25.966H145.84V25.1752H143.548V24.0789H146.132Z" fill="#058CD0"/>
<path d="M151.201 23.274L149.638 26.7311L148.089 23.274H147.028L149.146 27.9384H150.076L152.186 23.274H151.201Z" fill="#058CD0"/>
<path d="M156.902 27.1344H154.223V25.966H156.516V25.1752H154.223V24.0789H156.807V23.274H153.245V27.9384H156.902V27.1344Z" fill="#058CD0"/>
<path d="M159.438 24.926L161.985 27.9384H162.781V23.274H161.811V26.2865L159.263 23.274H158.467V27.9384H159.438V24.926Z" fill="#058CD0"/>
<path d="M165.604 27.9384H166.581V24.0847H168.155V23.274H164.03V24.0847H165.604V27.9384Z" fill="#058CD0"/>
<path d="M170.38 23.2749H169.402V27.9385H170.38V23.2749Z" fill="#058CD0"/>
<path d="M174.511 23.2098C173.002 23.2098 171.906 24.2176 171.906 25.6112C171.906 27.0048 173.002 28.0084 174.511 28.0084C176.02 28.0084 177.116 26.9998 177.116 25.6112C177.116 24.2225 176.021 23.2098 174.511 23.2098ZM174.511 27.1671C173.572 27.1671 172.891 26.5113 172.891 25.607C172.891 24.7028 173.572 24.0462 174.511 24.0462C175.45 24.0462 176.133 24.7053 176.133 25.607C176.133 26.5088 175.45 27.1671 174.511 27.1671Z" fill="#058CD0"/>
<path d="M181.977 23.274V26.2865L179.43 23.274H178.634V27.9384H179.605V24.926L182.152 27.9384H182.948V23.274H181.977Z" fill="#058CD0"/>
<path d="M131.399 31.9223H132.973V35.776H133.95V31.9223H135.524V31.1124H131.399V31.9223Z" fill="#058CD0"/>
<path d="M140.841 32.7843C140.841 31.7525 140.048 31.1124 138.772 31.1124H136.771V35.776H137.748V34.4436H138.772C138.824 34.4436 138.877 34.4436 138.932 34.4436L139.9 35.7801H140.966L139.856 34.2524C140.492 33.9891 140.841 33.4707 140.841 32.7843ZM137.745 31.9223H138.728C139.464 31.9223 139.853 32.2204 139.853 32.7843C139.853 33.3482 139.454 33.6529 138.728 33.6529H137.748L137.745 31.9223Z" fill="#058CD0"/>
<path d="M143.888 31.1124L141.709 35.776H142.723L143.191 34.7177H145.501L145.977 35.776H147.004L144.818 31.1124H143.888ZM145.169 33.9592H143.53L144.346 32.1235L145.169 33.9592Z" fill="#058CD0"/>
<path d="M149.144 31.1124H148.166V35.776H149.144V31.1124Z" fill="#058CD0"/>
<path d="M154.352 34.124L151.805 31.1124H151.009V35.776H151.979V32.7636L154.527 35.776H155.323V31.1124H154.352V34.124Z" fill="#058CD0"/>
<path d="M158.158 31.1124H157.181V35.776H158.158V31.1124Z" fill="#058CD0"/>
<path d="M163.365 34.124L160.818 31.1124H160.021V35.776H160.991V32.7636L163.539 35.776H164.336V31.1124H163.365V34.124Z" fill="#058CD0"/>
<path d="M168.514 31.8833C168.751 31.8788 168.987 31.9217 169.207 32.0093C169.426 32.097 169.624 32.2275 169.789 32.3926L169.822 32.4249L170.445 31.8394L170.415 31.8071C169.961 31.3103 169.289 31.047 168.473 31.047C166.956 31.047 165.855 32.0547 165.855 33.4483C165.855 34.8419 166.95 35.8497 168.459 35.8497C169.177 35.8497 169.865 35.6335 170.351 35.2576L170.369 35.2444V33.3539H169.44V34.7972C169.155 34.9454 168.835 35.0196 168.511 35.0125C167.544 35.0125 166.843 34.3567 166.843 33.4525C166.844 32.5251 167.531 31.8833 168.514 31.8833Z" fill="#058CD0"/>
<path d="M17.5104 22.0482L23.7329 15.824C24.4511 15.1059 24.9403 14.1909 25.1386 13.1948C25.3368 12.1986 25.2352 11.1661 24.8466 10.2277C24.458 9.28933 23.7999 8.48725 22.9555 7.92291C22.111 7.35858 21.1182 7.05732 20.1025 7.05726C19.8121 7.0573 19.5222 7.08191 19.236 7.13083C18.1873 7.30715 17.2204 7.80769 16.471 8.56207L16.1603 8.87448L15.8462 8.56207C15.3704 8.08391 14.8047 7.70474 14.1815 7.44645C13.5584 7.18817 12.8903 7.05589 12.2158 7.05726C11.925 7.05728 11.6347 7.08189 11.3481 7.13083C10.4197 7.28918 9.55283 7.69986 8.84226 8.31792C8.13169 8.93598 7.60484 9.73759 7.31936 10.635C7.03388 11.5325 7.00077 12.4912 7.22367 13.4062C7.44656 14.3212 7.91687 15.1572 8.58311 15.8228L11.5939 18.8354L14.28 16.1545L11.2657 13.1419C11.1404 13.0177 11.0411 12.8698 10.9735 12.7067C10.9059 12.5437 10.8715 12.3689 10.8722 12.1924C10.872 12.0674 10.8897 11.9429 10.9247 11.8228C10.9886 11.5978 11.1102 11.3933 11.2774 11.2297C11.4446 11.0661 11.6516 10.949 11.878 10.89C12.1044 10.831 12.3422 10.8322 12.568 10.8933C12.7938 10.9545 12.9997 11.0736 13.1653 11.2389L16.1603 14.2368L19.1536 11.2418C19.4057 10.9898 19.7476 10.8483 20.1041 10.8484C20.4606 10.8485 20.8024 10.9902 21.0543 11.2424C21.3063 11.4945 21.4478 11.8364 21.4477 12.1928C21.4476 12.5493 21.3059 12.8911 21.0538 13.1431L14.8173 19.3778L11.692 22.6129L7.23245 18.3402C5.27391 16.5691 4.47508 15.0613 4.28296 12.7752C4.25435 12.4056 4.238 12.0062 4.238 11.5904V4.40032H10.8949V0.609375H0.442383V11.5875C0.442383 15.7013 1.6272 18.3758 4.66603 21.1308L11.7866 27.9571L17.5104 22.0482Z" fill="#0364B3"/>
<path d="M21.3418 0.609375V4.40062H28.0828V11.4406C28.0828 14.4627 27.3236 16.1662 25.0863 18.1909L13.9263 29.5512V36.2087H9.75781V39.9999H21.9632V36.2087H17.7187V31.1163L17.7351 31.1L27.6629 20.973C30.6944 18.2195 31.8734 15.5478 31.8734 11.4406V0.609375H21.3418Z" fill="#058CD0"/>
<path d="M16.1612 5.91182C17.7647 5.91182 19.0645 4.58842 19.0645 2.95591C19.0645 1.32341 17.7647 0 16.1612 0C14.5577 0 13.2578 1.32341 13.2578 2.95591C13.2578 4.58842 14.5577 5.91182 16.1612 5.91182Z" fill="#0364B3"/>
<path d="M86.9491 5.12134H73.0937V35.8496H80.996V27.5565H86.9499C95.2498 27.5565 100.408 23.2673 100.408 16.361C100.407 9.42802 95.249 5.12134 86.9491 5.12134ZM86.4132 21.4754H80.9952V11.2033H86.4132C90.2294 11.2033 92.4173 13.08 92.4173 16.361C92.4173 19.6112 90.2294 21.4754 86.4132 21.4754Z" fill="#0364B3"/>
<path d="M102.115 5.12134V11.2467H112.428V35.8496H120.877V11.2467H131.136V5.12134H102.115Z" fill="#0364B3"/>
<path d="M48.6316 5.12134L35.5371 35.8496H43.3196L52.5196 12.0919L59.348 29.7201H47.1193L49.7367 35.8496H69.6797L56.5426 5.12134H48.6316Z" fill="#0364B3"/>
</svg>
