<svg width="28" height="29" viewBox="0 0 28 29" fill="none" xmlns="http://www.w3.org/2000/svg">
<path fill-rule="evenodd" clip-rule="evenodd" d="M4.375 14.5C4.375 13.6946 5.02792 13.0417 5.83333 13.0417H22.1667C22.9721 13.0417 23.625 13.6946 23.625 14.5C23.625 15.3054 22.9721 15.9583 22.1667 15.9583H5.83333C5.02792 15.9583 4.375 15.3054 4.375 14.5Z" fill="white"/>
<path fill-rule="evenodd" clip-rule="evenodd" d="M12.9688 5.30214C13.5383 4.73262 14.4617 4.73262 15.0312 5.30214L23.1979 13.4688C23.7674 14.0383 23.7674 14.9617 23.1979 15.5312L15.0312 23.6979C14.4617 24.2674 13.5383 24.2674 12.9688 23.6979C12.3993 23.1283 12.3993 22.205 12.9688 21.6355L20.1043 14.5L12.9688 7.36453C12.3993 6.79502 12.3993 5.87165 12.9688 5.30214Z" fill="white"/>
</svg>
