<svg width="366" height="80" viewBox="0 0 366 80" fill="none" xmlns="http://www.w3.org/2000/svg">
<path d="M266.273 30.8757L261.915 40.2029H263.944L264.88 38.0864H269.505L270.454 40.2029H272.518L268.129 30.8757H266.273ZM268.836 36.5694H265.558L267.19 32.8978L268.836 36.5694Z" fill="#058CD0"/>
<path d="M281.748 38.5815H276.782V30.8757H274.828V40.2029H281.748V38.5815Z" fill="#058CD0"/>
<path d="M288.624 40.3327C290.21 40.3327 291.574 39.7779 292.468 38.771L292.527 38.7048L291.252 37.5356L291.185 37.6051C290.878 37.9422 290.498 38.2109 290.072 38.3928C289.646 38.5747 289.184 38.6653 288.719 38.6584C286.81 38.6584 285.423 37.3468 285.423 35.5383C285.423 33.7299 286.81 32.4166 288.719 32.4166C289.183 32.4102 289.644 32.4999 290.07 32.6796C290.496 32.8592 290.877 33.1248 291.187 33.4582L291.252 33.5262L292.528 32.3669L292.468 32.3006C291.574 31.2937 290.213 30.7406 288.638 30.7406C285.635 30.7406 283.456 32.7561 283.456 35.5433C283.456 38.3305 285.63 40.3327 288.624 40.3327Z" fill="#058CD0"/>
<path d="M299.68 40.3335C302.698 40.3335 304.89 38.3164 304.89 35.5308C304.89 32.7453 302.698 30.7282 299.68 30.7282C296.661 30.7282 294.47 32.7436 294.47 35.5308C294.47 38.318 296.661 40.3335 299.68 40.3335ZM299.68 32.4174C301.558 32.4174 302.92 33.7307 302.92 35.5391C302.92 37.3476 301.558 38.6592 299.68 38.6592C297.802 38.6592 296.438 37.3476 296.438 35.5391C296.438 33.7307 297.802 32.4174 299.68 32.4174Z" fill="#058CD0"/>
<path d="M314.599 34.65H309.88V30.8757H307.924V40.2029H309.88V36.2845H314.599V40.2029H316.553V30.8757H314.599V34.65Z" fill="#058CD0"/>
<path d="M324.8 30.7448C321.78 30.7448 319.59 32.7602 319.59 35.5475C319.59 38.3347 321.78 40.3501 324.8 40.3501C327.82 40.3501 330.01 38.333 330.01 35.5475C330.01 32.7619 327.812 30.7448 324.8 30.7448ZM324.8 38.6592C322.922 38.6592 321.558 37.3476 321.558 35.5392C321.558 33.7307 322.922 32.4174 324.8 32.4174C326.678 32.4174 328.04 33.7307 328.04 35.5392C328.04 37.3476 326.678 38.6592 324.8 38.6592Z" fill="#058CD0"/>
<path d="M339.968 38.5815H335.005V30.8757H333.049V40.2029H339.968V38.5815Z" fill="#058CD0"/>
<path d="M265.917 46.55H261.915V55.8771H263.869V53.2389H265.917C268.469 53.2389 270.055 51.9571 270.055 49.8936C270.055 47.8301 268.473 46.55 265.917 46.55ZM263.869 48.1696H265.836C267.308 48.1696 268.088 48.7658 268.088 49.8936C268.088 51.0214 267.308 51.6176 265.836 51.6176H263.869V48.1696Z" fill="#058CD0"/>
<path d="M274.942 53.2191H276.99C277.093 53.2191 277.202 53.2191 277.308 53.2191L279.245 55.8921H281.376L279.155 52.8366C280.428 52.3182 281.125 51.2815 281.125 49.9086C281.125 47.8451 279.541 46.565 276.997 46.565H272.993V55.8921H274.948L274.942 53.2191ZM274.942 48.1764H276.904C278.376 48.1764 279.155 48.7725 279.155 49.9003C279.155 51.0281 278.356 51.6376 276.904 51.6376H274.938L274.942 48.1764Z" fill="#058CD0"/>
<path d="M291.38 48.1579V46.5482H284.256V55.877H291.569V54.2689H286.212V51.9322H290.795V50.3506H286.212V48.1579H291.38Z" fill="#058CD0"/>
<path d="M301.518 46.5482L298.393 53.4624L295.294 46.5482H293.173L297.408 55.877H299.269L303.489 46.5482H301.518Z" fill="#058CD0"/>
<path d="M312.92 54.2689H307.562V51.9322H312.148V50.3506H307.562V48.1579H312.731V46.5482H305.607V55.877H312.92V54.2689Z" fill="#058CD0"/>
<path d="M317.991 49.8521L323.086 55.877H324.679V46.5482H322.738V52.5731L317.642 46.5482H316.05V55.877H317.991V49.8521Z" fill="#058CD0"/>
<path d="M330.325 55.877H332.279V48.1695H335.426V46.5482H327.178V48.1695H330.325V55.877Z" fill="#058CD0"/>
<path d="M339.876 46.55H337.921V55.8771H339.876V46.55Z" fill="#058CD0"/>
<path d="M348.138 46.42C345.12 46.42 342.929 48.4354 342.929 51.2226C342.929 54.0098 345.12 56.017 348.138 56.017C351.157 56.017 353.348 53.9999 353.348 51.2226C353.348 48.4454 351.158 46.42 348.138 46.42ZM348.138 54.3344C346.26 54.3344 344.898 53.0228 344.898 51.2144C344.898 49.4059 346.26 48.0926 348.138 48.0926C350.016 48.0926 351.382 49.4109 351.382 51.2144C351.382 53.0179 350.016 54.3344 348.138 54.3344Z" fill="#058CD0"/>
<path d="M363.071 46.5482V52.5731L357.977 46.5482H356.384V55.877H358.326V49.8521L363.42 55.877H365.013V46.5482H363.071Z" fill="#058CD0"/>
<path d="M261.915 63.8447H265.062V71.5522H267.016V63.8447H270.163V62.2251H261.915V63.8447Z" fill="#058CD0"/>
<path d="M280.798 65.5687C280.798 63.5053 279.212 62.2251 276.66 62.2251H272.658V71.5522H274.613V68.8875H276.66C276.765 68.8875 276.872 68.8875 276.98 68.8875L278.917 71.5605H281.049L278.829 68.505C280.1 67.9784 280.798 66.9416 280.798 65.5687ZM274.606 63.8447H276.572C278.045 63.8447 278.824 64.4409 278.824 65.5687C278.824 66.6965 278.024 67.306 276.572 67.306H274.613L274.606 63.8447Z" fill="#058CD0"/>
<path d="M286.892 62.2251L282.534 71.5522H284.562L285.497 69.4357H290.119L291.07 71.5522H293.125L288.751 62.2251H286.892ZM289.455 67.9187H286.176L287.809 64.2472L289.455 67.9187Z" fill="#058CD0"/>
<path d="M297.403 62.2251H295.447V71.5522H297.403V62.2251Z" fill="#058CD0"/>
<path d="M307.821 68.2483L302.727 62.2251H301.134V71.5522H303.074V65.5273L308.17 71.5522H309.763V62.2251H307.821V68.2483Z" fill="#058CD0"/>
<path d="M315.433 62.2251H313.477V71.5522H315.433V62.2251Z" fill="#058CD0"/>
<path d="M325.846 68.2483L320.751 62.2251H319.159V71.5522H321.099V65.5273L326.195 71.5522H327.788V62.2251H325.846V68.2483Z" fill="#058CD0"/>
<path d="M336.143 63.7668C336.618 63.7577 337.09 63.8435 337.529 64.0188C337.968 64.1941 338.365 64.4551 338.694 64.7853L338.761 64.8499L340.006 63.6791L339.946 63.6145C339.038 62.6208 337.695 62.0942 336.062 62.0942C333.028 62.0942 330.825 64.1096 330.825 66.8968C330.825 69.684 333.016 71.6995 336.035 71.6995C337.469 71.6995 338.847 71.2673 339.819 70.5154L339.855 70.4889V66.708H337.996V69.5946C337.426 69.891 336.786 70.0394 336.138 70.0252C334.205 70.0252 332.801 68.7136 332.801 66.9051C332.803 65.0503 334.179 63.7668 336.143 63.7668Z" fill="#058CD0"/>
<path d="M34.1361 44.0965L46.5811 31.648C48.0177 30.2118 48.996 28.3819 49.3925 26.3896C49.789 24.3973 49.5858 22.3322 48.8087 20.4555C48.0315 18.5787 46.7152 16.9745 45.0263 15.8459C43.3374 14.7172 41.3517 14.1147 39.3204 14.1145C38.7396 14.1146 38.1598 14.1638 37.5872 14.2617C35.49 14.6143 33.5561 15.6154 32.0573 17.1242L31.436 17.749L30.8077 17.1242C29.8562 16.1678 28.7246 15.4095 27.4784 14.8929C26.2322 14.3764 24.896 14.1118 23.5469 14.1145C22.9653 14.1146 22.3848 14.1638 21.8114 14.2617C19.9547 14.5784 18.2209 15.3998 16.7998 16.6359C15.3787 17.872 14.325 19.4752 13.754 21.2701C13.183 23.065 13.1168 24.9824 13.5626 26.8124C14.0084 28.6424 14.949 30.3145 16.2815 31.6457L22.3031 37.6708L27.6754 32.309L21.6468 26.2839C21.3961 26.0354 21.1974 25.7396 21.0623 25.4136C20.9271 25.0875 20.8582 24.7379 20.8596 24.3849C20.8592 24.1348 20.8946 23.8858 20.9647 23.6457C21.0925 23.1956 21.3357 22.7867 21.6701 22.4595C22.0045 22.1322 22.4185 21.898 22.8713 21.78C23.324 21.662 23.7997 21.6644 24.2513 21.7867C24.7029 21.9091 25.1147 22.1473 25.4459 22.4778L31.436 28.4737L37.4226 22.4836C37.9268 21.9797 38.6106 21.6967 39.3236 21.6969C40.0365 21.6971 40.7201 21.9805 41.224 22.4848C41.728 22.989 42.011 23.6728 42.0108 24.3857C42.0106 25.0987 41.7271 25.7823 41.2229 26.2862L28.7499 38.7558L22.4993 45.2259L13.5802 36.6804C9.66309 33.1382 8.06542 30.1228 7.68119 25.5505C7.62396 24.8112 7.59126 24.0124 7.59126 23.1808V8.80065H20.9052V1.21873H0V23.175C0 31.4028 2.36964 36.7517 8.44732 42.2618L22.6885 55.9143L34.1361 44.0965Z" fill="#0364B3"/>
<path d="M41.7997 1.21873V8.80125H55.2817V22.8812C55.2817 28.9255 53.7634 32.3325 49.2888 36.3819L26.9687 59.1026V72.4175H18.6317V80.0001H43.0425V72.4175H34.5536V62.2328L34.5863 62.2001L54.442 41.9462C60.5049 36.4391 62.8631 31.0956 62.8631 22.8812V1.21873H41.7997Z" fill="#058CD0"/>
<path d="M31.4371 11.8237C34.6441 11.8237 37.2438 9.17686 37.2438 5.91184C37.2438 2.64682 34.6441 0 31.4371 0C28.2301 0 25.6304 2.64682 25.6304 5.91184C25.6304 9.17686 28.2301 11.8237 31.4371 11.8237Z" fill="#0364B3"/>
<path d="M173.014 10.2429H145.303V71.6996H161.108V55.1134H173.016C189.616 55.1134 199.931 46.5349 199.931 32.7222C199.93 18.8563 189.614 10.2429 173.014 10.2429ZM171.942 42.9511H161.106V22.4068H171.942C179.575 22.4068 183.951 26.1603 183.951 32.7222C183.951 39.2226 179.575 42.9511 171.942 42.9511Z" fill="#0364B3"/>
<path d="M203.345 10.2429V22.4936H223.971V71.6996H240.869V22.4936H261.388V10.2429H203.345Z" fill="#0364B3"/>
<path d="M96.3783 10.2429L70.1892 71.6996H85.7542L104.154 24.1841L117.811 59.4406H93.3536L98.5885 71.6996H138.475L112.2 10.2429H96.3783Z" fill="#0364B3"/>
</svg>
